<?xml version="1.0" standalone="no"?><!DOCTYPE svg PUBLIC "-//W3C//DTD SVG 1.1//EN" "http://www.w3.org/Graphics/SVG/1.1/DTD/svg11.dtd"><svg t="1624522344566" class="icon" viewBox="0 0 1024 1024" version="1.1" xmlns="http://www.w3.org/2000/svg" p-id="8361" xmlns:xlink="http://www.w3.org/1999/xlink" width="200" height="200"><defs><style type="text/css"></style></defs><path d="M699.8016 529.2288l-12.0832 12.0832c4.6848-3.328 8.7552-7.424 12.0832-12.0832z" fill="#7AC3E1" p-id="8362"></path><path d="M723.7632 507.2384l8.448-8.4224a11.0592 11.0592 0 0 0-8.448 8.4224zM635.776 547.1232a14.6176 14.6176 0 0 0-8.8832-3.4048c-2.56 0-7.0656 2.7904-12.6976 7.1168h26.3424l-4.7616-3.712z" fill="#8C8B84" p-id="8363"></path><path d="M903.68 0H120.32A43.52 43.52 0 0 0 76.8 43.52v565.76a43.52 43.52 0 0 0 43.52 43.52h783.36a43.52 43.52 0 0 0 43.52-43.52V43.52A43.52 43.52 0 0 0 903.68 0z" fill="#178EAA" p-id="8364"></path><path d="M903.68 25.6H120.32A43.52 43.52 0 0 0 76.8 69.12v565.76a43.52 43.52 0 0 0 43.52 43.52h783.36a43.52 43.52 0 0 0 43.52-43.52V69.12A43.52 43.52 0 0 0 903.68 25.6z" fill="#26A1C6" p-id="8365"></path><path d="M903.68 139.648H120.32a43.52 43.52 0 0 0-43.52 43.52v565.76a43.52 43.52 0 0 0 43.52 43.52h783.36a43.52 43.52 0 0 0 43.52-43.52v-565.76a43.52 43.52 0 0 0-43.52-43.52z" fill="#3BAFDA" p-id="8366"></path><path d="M903.68 51.2H120.32A43.52 43.52 0 0 0 76.8 94.72v565.76a43.52 43.52 0 0 0 43.52 43.52h783.36a43.52 43.52 0 0 0 43.52-43.52V94.72A43.52 43.52 0 0 0 903.68 51.2z" fill="#3BAFDA" p-id="8367"></path><path d="M351.4112 298.0096c1.0496 0.2816 2.0224 0.64 3.0464 0.9216 0.6656 0.1536 1.2288 0.4608 1.8688 0.5888 7.424 1.8176 15.0272 2.7648 22.7072 2.8416l0.9216-0.0768c7.3472-0.128 14.6432-1.0496 21.7856-2.7648a99.84 99.84 0 0 0-21.7856-197.0944c-0.3072 0.0256-0.5888-0.0256-0.9216-0.0256-2.4576 0-4.736 0.5376-7.1424 0.7168-1.024 0.0768-2.0224 0.256-3.0208 0.3584-50.3552 5.1456-89.8304 47.1552-89.8304 98.8928 0 45.568 30.6688 83.6096 72.3712 95.6416zM522.5216 333.3888h-64.6912l-77.8496 93.824-79.7184-93.824H235.5456c-12.8 0-23.168 10.368-23.168 23.168v190.1568h333.2864v-190.1312a23.168 23.168 0 0 0-23.1424-23.1936z" fill="#EFF2F4" p-id="8368"></path><path d="M787.0464 210.2528h-139.2384a24.576 24.576 0 0 0-24.576 24.576v2.56c0 13.568 11.008 24.576 24.576 24.576h139.2384c13.568 0 24.576-11.008 24.576-24.576v-2.56a24.576 24.576 0 0 0-24.576-24.576zM787.0464 328.2432h-139.2384a24.576 24.576 0 0 0-24.576 24.576v2.56c0 13.568 11.008 24.576 24.576 24.576h139.2384c13.568 0 24.576-11.008 24.576-24.576v-2.56a24.576 24.576 0 0 0-24.576-24.576zM787.0464 446.4896h-139.2384a24.576 24.576 0 0 0-24.576 24.576v2.56c0 13.568 11.008 24.576 24.576 24.576h139.2384c13.568 0 24.576-11.008 24.576-24.576v-2.56a24.576 24.576 0 0 0-24.576-24.576z" fill="#EFF2F4" p-id="8369"></path><path d="M888.3712 402.5344h-179.0208v97.1008c0 11.0592-3.584 21.2224-9.5488 29.5936-3.328 4.6848-7.3984 8.7552-12.0832 12.0832a50.7648 50.7648 0 0 1-29.5936 9.5232H365.8752a51.2 51.2 0 0 1-51.2-51.2v-97.1008H11.8272v502.6304A118.8608 118.8608 0 0 0 130.688 1024h762.624a118.8608 118.8608 0 0 0 118.8608-118.8608V402.5344h-123.8016z" fill="#E2B33F" p-id="8370"></path><path d="M714.6496 757.1968a8.2432 8.2432 0 0 0-5.5808-3.328l-48.5632-7.424 0.256 0.8448c1.9968 6.5024 1.8432 7.0144-0.256 0.2304l-0.2304-0.0512-0.5376-1.4592a158.592 158.592 0 0 0-10.3936-24.6784l0.1536-0.2048c3.2-4.4288 7.936-10.5984 14.2592-18.5856 6.4-8.1152 10.9056-14.0032 13.5936-17.7408a10.1632 10.1632 0 0 0 2.1248-6.144 8.576 8.576 0 0 0-1.8688-5.8624c-6.4-9.088-21.0432-24.1664-44.0064-45.3376a10.3424 10.3424 0 0 0-6.656-2.6624 8.5504 8.5504 0 0 0-6.4 2.4064l-37.4784 28.2368-0.384 0.3072a163.6864 163.6864 0 0 0-24.0128-9.8816l-0.1024-0.6144-7.3728-48.4608a7.8848 7.8848 0 0 0-3.0464-5.7344 10.3424 10.3424 0 0 0-6.5536-2.2528h-59.2128c-1.2288 0-1.9712 0.6144-2.9952 0.896l-6.6048 6.6048c-2.304 8.8064-4.8384 25.1904-7.68 49.0752l-0.0512 0.4864a154.368 154.368 0 0 0-24.2688 10.1376l-0.384-0.3072-15.2064-11.8016-17.4592-13.5424h-20.608c-0.6912 0.5376-1.2032 0.7936-1.9456 1.408a195.0464 195.0464 0 0 0-13.3376 12.1088c-12.8768 12.6976-21.632 22.272-26.2656 28.672a11.136 11.136 0 0 0-2.4064 6.1184c0 2.1248 0.896 4.2752 2.6624 6.4 6.4 7.7312 11.9552 14.72 16.9472 21.2224 4.2752 5.5296 8.1664 10.752 11.4432 15.4112l0.1536 0.1792c-4.4544 8.192-7.9104 16.3584-10.3936 24.5248l-0.128 0.0256-48.512 7.296-7.3472 7.3472c-0.1792 0.8192-0.7936 1.5616-0.7936 2.432v59.1872c0 2.304 0.6912 4.4032 2.1248 6.272a8.3456 8.3456 0 0 0 5.6064 3.328l48.512 7.168 0.3072 0.0512c2.4832 8.704 6.1184 17.4848 10.9056 26.368a10.1632 10.1632 0 0 0-30.1056 42.7008c0 2.304 0.6144 4.352 1.8688 6.144 6.9376 9.5744 21.6064 24.5504 44.0064 44.7744a9.1136 9.1136 0 0 0 6.656 2.944 9.472 9.472 0 0 0 6.6816-2.4064l37.1968-28.2368 0.384-0.3072c7.296 3.7376 15.2832 7.0144 24.0128 9.8816l0.0768 0.6144 7.3728 48.4608c0.1792 2.304 1.2032 4.224 3.0464 5.7344a10.1888 10.1888 0 0 0 6.528 2.2272h59.2128c5.1456 0 8.3456-2.4832 9.5744-7.4752 2.304-8.8064 4.8384-25.216 7.68-49.1008a2.816 2.816 0 0 0 0.0512-0.4864c8.3456-2.688 16.4352-6.0672 24.2432-10.1376l0.4096 0.3072c0.256-0.128 0.512-0.3328 0.768-0.4864l35.6096 27.904a13.1072 13.1072 0 0 0 6.9376 2.3808c3.8912 0 12.2624-6.3232 25.0624-18.944s21.5808-22.2208 26.3936-28.8a8.8064 8.8064 0 0 0 2.3808-6.144 10.2912 10.2912 0 0 0-2.6368-6.656 651.0336 651.0336 0 0 1-28.2112-36.3776c3.4304-6.4512 6.8096-14.2848 10.0864-23.5776l0.128-0.0256c0.128-0.384 0.1536-0.768 0.2816-1.152l48.9216-7.3984a8.1152 8.1152 0 0 0 5.3248-3.456 9.9328 9.9328 0 0 0 2.2016-6.1184V763.4432a9.8816 9.8816 0 0 0-2.1504-6.2464z m-154.3936 84.6848a65.7408 65.7408 0 0 1-48.256 19.9936 65.792 65.792 0 0 1-48.2816-19.9936 65.7408 65.7408 0 0 1-19.9936-48.256c0-18.8416 6.6816-34.944 19.9936-48.2816A65.8432 65.8432 0 0 1 512 725.3504c18.8416 0 34.9184 6.6816 48.256 19.9936 13.3376 13.3376 19.9936 29.4144 19.9936 48.2816a65.792 65.792 0 0 1-19.9936 48.256z" fill="#B78523" p-id="8371"></path></svg>