<?xml version="1.0" standalone="no"?><!DOCTYPE svg PUBLIC "-//W3C//DTD SVG 1.1//EN" "http://www.w3.org/Graphics/SVG/1.1/DTD/svg11.dtd">
<svg t="1624587006354" class="icon" viewBox="0 0 1024 1024" version="1.1"
    xmlns="http://www.w3.org/2000/svg" p-id="28625"
    xmlns:xlink="http://www.w3.org/1999/xlink" width="200" height="200">
    <defs>
        <style type="text/css"></style>
    </defs>
    <path d="M508.296383 1024C445.483295 1024 384.520383 1011.677092 327.106566 987.403636 299.516748 975.732364 272.916021 961.291636 248.025839 944.477092 223.391657 927.837092 200.223657 908.73018 179.173475 887.668364 158.111657 866.61818 139.004748 843.45018 122.364748 818.816 105.550203 793.92582 91.097839 767.325092 79.449839 739.735272 55.164748 682.321456 42.841839 621.358544 42.841839 558.545456 42.841839 495.732364 55.164748 434.769456 79.449839 377.355636 91.109475 349.76582 105.550203 323.165091 122.364748 298.274909 139.004748 273.640727 158.111657 250.472727 179.173475 229.422546 197.349475 211.246546 226.824385 211.246546 245.000385 229.422546 263.176385 247.598546 263.176385 277.073454 245.000385 295.249454 210.789475 329.448727 183.932748 369.28 165.17493 413.614544 145.777112 459.496728 135.932748 508.253092 135.932748 558.545456 135.932748 608.82618 145.777112 657.59418 165.17493 703.476364 183.932748 747.810908 210.789475 787.630544 245.000385 821.841456 279.199657 856.052364 319.03093 882.909092 363.365475 901.666908 409.247659 921.064728 458.015659 930.909092 508.296383 930.909092 558.577111 930.909092 607.345111 921.064728 653.227295 901.666908 697.561839 882.909092 737.381475 856.052364 771.592383 821.841456 805.803295 787.64218 832.660019 747.810908 851.417839 703.476364 870.815659 657.59418 880.660019 608.82618 880.660019 558.545456 880.660019 508.253092 870.815659 459.496728 851.417839 413.614544 832.660019 369.28 805.803295 329.460364 771.592383 295.237818 753.416383 277.061818 753.416383 247.586909 771.592383 229.422546 789.768383 211.246546 819.243295 211.246546 837.419295 229.422546 858.481111 250.472727 877.588019 273.640727 894.228019 298.274909 911.042567 323.165091 925.483295 349.76582 937.142931 377.355636 961.428019 434.769456 973.750931 495.732364 973.750931 558.545456 973.750931 621.358544 961.428019 682.321456 937.142931 739.735272 925.471659 767.325092 911.042567 793.92582 894.228019 818.816 877.588019 843.45018 858.481111 866.61818 837.419295 887.668364 816.369111 908.73018 793.201111 927.837092 768.566931 944.477092 743.676747 961.291636 717.076019 975.744 689.486203 987.403636 632.072383 1011.677092 571.109475 1024 508.296383 1024L508.296383 1024ZM554.841839 512 554.841839 46.545454C554.841839 20.840727 534.001111 0 508.296383 0 482.591659 0 461.750931 20.840727 461.750931 46.545454L461.750931 512C461.750931 537.704728 482.591659 558.545456 508.296383 558.545456 534.001111 558.545456 554.841839 537.704728 554.841839 512L554.841839 512Z" p-id="28626"></path>
</svg>